<svg id="Livello_1" data-name="Livello 1" xmlns="http://www.w3.org/2000/svg" xmlns:xlink="http://www.w3.org/1999/xlink" viewBox="0 0 5435.8 1604"><defs><linearGradient id="Sfumatura_senza_nome_7" x1="2505.05" y1="861.67" x2="2505.05" y2="833.83" gradientTransform="matrix(36, 0, 0, -36, -89388, 31321)" gradientUnits="userSpaceOnUse"><stop offset="0" stop-color="#fb6361"/><stop offset="1" stop-color="#ed3e45"/></linearGradient></defs><path d="M5234.4,1604H201.4C90.4,1604,0,1513.6,0,1403.5V200.5C0,90,90.4,0,201.4,0h5033c110.9,0,201.4,90,201.4,200.5v1203C5435.8,1513.6,5345.3,1604,5234.4,1604Z" style="fill-rule:evenodd"/><path d="M5234.4,32.1c93.1,0,169.3,75.7,169.3,168.4v1203c0,92.7-75.7,168.4-169.3,168.4H201.4c-93.1,0-169.3-75.7-169.3-168.4V200.5c0-92.7,75.7-168.4,169.3-168.4Zm0-32.1H201.4C90.4,0,0,90.4,0,200.5v1203C0,1514,90.4,1604,201.4,1604h5033c110.9,0,201.4-90,201.4-200.5V200.5C5435.8,90.4,5345.3,0,5234.4,0Z" style="fill:#a6a6a6;fill-rule:evenodd"/><path d="M2863.6,530.6c-36.3,0-66.9-12.7-91.1-37.7a128.39,128.39,0,0,1-36.8-92c0-36.5,12.4-67.4,36.8-91.9,24.1-25,54.7-37.7,91-37.7,35.9,0,66.5,12.7,91.1,37.7,24.4,25.3,36.8,56.2,36.8,91.9-.4,36.6-12.8,67.5-36.8,91.9C2930.5,518,2899.9,530.6,2863.6,530.6Zm-1080.1,0c-35.5,0-66.3-12.5-91.5-37.2-25-24.6-37.7-55.7-37.7-92.4s12.7-67.8,37.7-92.4c24.7-24.7,55.5-37.2,91.5-37.2a127.51,127.51,0,0,1,51.1,10.6c16.1,6.9,29.2,16.3,38.9,27.8l2.4,2.9-27.1,26.6L1846,336c-15.3-18.2-35.8-27.1-62.9-27.1-24.2,0-45.3,8.6-62.7,25.6S1694,374,1694,401.1s8.9,49.5,26.4,66.6,38.5,25.6,62.7,25.6c25.8,0,47.5-8.6,64.4-25.6,10-10,16.2-24,18.4-41.7H1779V388.6h124.2l.5,3.4a137.21,137.21,0,0,1,1.8,18.8c0,34.5-10.4,62.4-31,83C1851.1,518.2,1820.5,530.6,1783.5,530.6Zm1436.1-5.3h-38.3L3064,337.6l1,33.8V525.2h-38.3V276.7h43.7l1.2,1.9,110.3,176.8-1-33.7v-145h38.7V525.3Zm-643.8,0H2537V314.1h-67.3V276.7H2643v37.4h-67.3V525.3Zm-137.7,0h-38.7V276.7h38.7Zm-217.5,0h-38.7V314.1h-67.3V276.7h173.3v37.4h-67.3Zm-130.5-.4H1941.7V276.7h148.4v37.4H1980.5v68.2h98.9v37h-98.9v68.2h109.6Zm710.8-57.7c17.3,17.3,38.3,26,62.7,26,25.1,0,45.6-8.5,62.7-26,17-17,25.6-39.3,25.6-66.2s-8.6-49.3-25.5-66.2c-17.3-17.3-38.4-26-62.7-26-25.1,0-45.6,8.5-62.6,26-17,17-25.6,39.3-25.6,66.2s8.5,49.3,25.4,66.2Z" style="fill:#fff"/><path d="M1812.13,694.06h89.6l188.3,501.2h-86.8l-44.8-128.1h-202.3l-45.5,128.1h-86.8Zm119.7,300.3-53.2-149.1-19.6-58.1h-4.2l-19.6,58.1L1782,994.36Z" style="fill:#fff"/><path d="M2118.72,838.26h73.5v46.9h3.5q15.39-24.49,45.5-41.3t67.9-16.8q48.3,0,87.5,24.5t62,67.55q22.74,43,22.75,97.65t-22.75,97.65q-22.76,43-62,67.55t-87.5,24.5q-37.8,0-67.9-16.8t-45.5-40.6h-3.5l3.5,49.7v147.7h-77Zm231.7,282.8q24.49-14.7,39.2-42t14.7-62.3q0-35-14.7-62t-39.2-41.65a100.35,100.35,0,0,0-52.5-14.7,98.5,98.5,0,0,0-52.15,14.7q-24.15,14.7-38.85,41.65t-14.7,62q0,35,14.7,62.3t38.85,42a98.5,98.5,0,0,0,52.15,14.7A100.35,100.35,0,0,0,2350.42,1121.06Z" style="fill:#fff"/><path d="M2514.22,838.26h73.5v46.9h3.5q15.39-24.49,45.5-41.3t67.9-16.8q48.3,0,87.5,24.5t62,67.55q22.74,43,22.75,97.65t-22.75,97.65q-22.76,43-62,67.55t-87.5,24.5q-37.8,0-67.9-16.8t-45.5-40.6h-3.5l3.5,49.7v147.7h-77Zm231.7,282.8q24.49-14.7,39.2-42t14.7-62.3q0-35-14.7-62t-39.2-41.65a100.35,100.35,0,0,0-52.5-14.7,98.5,98.5,0,0,0-52.15,14.7q-24.15,14.7-38.85,41.65t-14.7,62q0,35,14.7,62.3t38.85,42a98.5,98.5,0,0,0,52.15,14.7A100.35,100.35,0,0,0,2745.92,1121.06Z" style="fill:#fff"/><path d="M3037.82,1172.16a256.74,256.74,0,0,1-95.55-94.15q-35.36-59.85-35.35-133.35t35.35-133.35a256.82,256.82,0,0,1,95.55-94.15q60.19-34.29,131.6-34.3,56.7,0,105.7,20.3t81.9,56.7l-54.6,54.6a166.55,166.55,0,0,0-58.45-42q-34-14.7-75.25-14.7a184.43,184.43,0,0,0-90.3,23.1q-42,23.1-67.2,65.8t-25.2,98q0,55.3,25.2,98t67.2,65.8a185.78,185.78,0,0,0,91,23.1q44.79,0,74.9-13.3a190.1,190.1,0,0,0,53.9-35.7q15.39-15.39,26.25-38.5a168.31,168.31,0,0,0,14.35-50.4h-170.1v-70H3413a230.93,230.93,0,0,1,3.5,40.6,284.82,284.82,0,0,1-14.7,91.35,192.71,192.71,0,0,1-46.9,76q-70.71,74.91-185.5,74.9Q3098,1206.46,3037.82,1172.16Z" style="fill:#fff"/><path d="M3499.82,1191.41q-30.11-15-46.9-42.7t-16.8-62.65q0-55.29,41.65-87.5t105.35-32.2q31.5,0,56.7,5.95t39.9,13v-18.2q0-32.89-24.5-53.55t-63-20.65a114.91,114.91,0,0,0-51.45,11.9,101,101,0,0,0-38.85,32.9l-53.9-41.3q23.79-32.9,61.6-51.1t84-18.2q77.7,0,119.7,38.15t42,107.45v222.6h-75.6v-42.7h-3.5q-15.41,23.1-43.4,38.5t-64.4,15.4Q3529.92,1206.46,3499.82,1191.41Zm132.3-62a95.08,95.08,0,0,0,35-35.7,96.9,96.9,0,0,0,12.6-48.3,157.41,157.41,0,0,0-37.45-14.7,174.67,174.67,0,0,0-44.45-5.6q-43.41,0-63.7,17.15t-20.3,44.45q0,24.51,18.9,40.25t49,15.75Q3609.71,1142.76,3632.12,1129.46Z" style="fill:#fff"/><path d="M3812,694.06h77v501.2h-77Z" style="fill:#fff"/><path d="M3952,694.06h77v501.2h-77Z" style="fill:#fff"/><path d="M4157.47,1182a172.48,172.48,0,0,1-65.09-67.55q-23.48-43-23.46-97,0-51.09,22.75-94.85T4155,853q40.59-25.89,92.4-25.9,53.9,0,93.46,23.8a156,156,0,0,1,60.19,65.1q20.64,41.31,20.65,93.1a178.84,178.84,0,0,1-2.1,24.5h-273.7q4.2,49.71,35.35,76.65t72.45,27q32.89,0,57.05-15.05a112.86,112.86,0,0,0,38.85-40.95l65.1,30.8q-25.2,44.1-65.8,69.3t-97.3,25.2Q4199.12,1206.46,4157.47,1182Zm185.85-207.2q-1.41-18.9-11.9-37.45t-31.85-31.15q-21.36-12.6-52.15-12.6-37.11,0-62.65,22.05t-35.35,59.15Z" style="fill:#fff"/><path d="M4464.42,838.26h73.5v52.5h3.5q11.9-27.3,41.3-45.15t62.3-17.85q25.89,0,43.4,7v79.8q-30.81-11.19-55.3-11.2-26.61,0-47.25,14a97.75,97.75,0,0,0-32.55,37.45q-11.91,23.46-11.9,51.45v189h-77Z" style="fill:#fff"/><path d="M4844.5,1175.66l-148.4-337.4h86.1l100.8,242.9h2.8l98-242.9h84.7L4848,1346.46h-81.2Z" style="fill:#fff"/><g id="ic_ag" data-name="ic ag"><g id="编组"><path id="Fill-1" d="M573.88,301C368,301,292.76,376.31,292.76,582.11v439.78c0,205.8,75.28,281.07,281.12,281.07h439.55c205.83,0,281.26-75.27,281.26-281.07V582.11c0-205.8-75.29-281.07-281.13-281.07Z" style="fill-rule:evenodd;fill:url(#Sfumatura_senza_nome_7)"/><path id="Fill-1-2" data-name="Fill-1" d="M729.79,882.13H770L749.84,835.2Zm-9.9,23.65L708,933.09H680.78L738.56,802h23.49l57.54,131.08H791.7l-11.79-27.31ZM1157.1,933h26.26V802H1157.1Zm-104.52-56.27H1101V852.84h-48.41V826h70.27V802.1h-96.52v131h99.05V909.19h-72.8ZM948.24,892.2,918.47,802H896.74L867,892.2l-29-90.13H809.67l45.72,131.09h22l29.82-86.1,29.82,86.1h22.21l45.61-131.09h-27.6ZM640.7,877.08c0,21.33-10.59,32.72-29.82,32.72s-30-11.72-30-33.63V802.09H554.28v75c0,36.89,20.51,58,56.24,58,36.08,0,56.77-21.56,56.77-59.14V802H640.7ZM490.79,802h26.6V933.17h-26.6V879.9H430.7v53.27H404.08V802H430.7v52.9h60.09Z" style="fill:#fff;fill-rule:evenodd"/><path id="Fill-3" d="M793.72,635c-92.09,0-167-74.91-167-167h23.59c0,79.07,64.34,143.4,143.4,143.4s143.4-64.33,143.4-143.4h23.59c0,92.08-74.91,167-167,167" style="fill:#fff;fill-rule:evenodd"/></g></g></svg>