<svg id="Livello_1" data-name="Livello 1" xmlns="http://www.w3.org/2000/svg" xmlns:xlink="http://www.w3.org/1999/xlink" viewBox="0 0 5435.8 1604"><defs><linearGradient id="Sfumatura_senza_nome_6" x1="2307.3" y1="898.63" x2="2273.51" y2="819.8" gradientTransform="matrix(7.71, 0, 0, -7.71, -16832.63, 7371.67)" gradientUnits="userSpaceOnUse"><stop offset="0" stop-color="#37aee2"/><stop offset="1" stop-color="#1e96c8"/></linearGradient></defs><path d="M5234.4,1604H201.4C90.4,1604,0,1513.6,0,1403.5V200.5C0,90,90.4,0,201.4,0h5033c110.9,0,201.4,90,201.4,200.5v1203C5435.8,1513.6,5345.3,1604,5234.4,1604Z" style="fill-rule:evenodd"/><path d="M5234.4,32.1c93.1,0,169.3,75.7,169.3,168.4v1203c0,92.7-75.7,168.4-169.3,168.4H201.4c-93.1,0-169.3-75.7-169.3-168.4V200.5c0-92.7,75.7-168.4,169.3-168.4Zm0-32.1H201.4C90.4,0,0,90.4,0,200.5v1203C0,1514,90.4,1604,201.4,1604h5033c110.9,0,201.4-90,201.4-200.5V200.5C5435.8,90.4,5345.3,0,5234.4,0Z" style="fill:#a6a6a6;fill-rule:evenodd"/><path d="M2863.6,530.6c-36.3,0-66.9-12.7-91.1-37.7a128.39,128.39,0,0,1-36.8-92c0-36.5,12.4-67.4,36.8-91.9,24.1-25,54.7-37.7,91-37.7,35.9,0,66.5,12.7,91.1,37.7,24.4,25.3,36.8,56.2,36.8,91.9-.4,36.6-12.8,67.5-36.8,91.9C2930.5,518,2899.9,530.6,2863.6,530.6Zm-1080.1,0c-35.5,0-66.3-12.5-91.5-37.2-25-24.6-37.7-55.7-37.7-92.4s12.7-67.8,37.7-92.4c24.7-24.7,55.5-37.2,91.5-37.2a127.51,127.51,0,0,1,51.1,10.6c16.1,6.9,29.2,16.3,38.9,27.8l2.4,2.9-27.1,26.6L1846,336c-15.3-18.2-35.8-27.1-62.9-27.1-24.2,0-45.3,8.6-62.7,25.6S1694,374,1694,401.1s8.9,49.5,26.4,66.6,38.5,25.6,62.7,25.6c25.8,0,47.5-8.6,64.4-25.6,10-10,16.2-24,18.4-41.7H1779V388.6h124.2l.5,3.4a137.21,137.21,0,0,1,1.8,18.8c0,34.5-10.4,62.4-31,83C1851.1,518.2,1820.5,530.6,1783.5,530.6Zm1436.1-5.3h-38.3L3064,337.6l1,33.8V525.2h-38.3V276.7h43.7l1.2,1.9,110.3,176.8-1-33.7v-145h38.7V525.3Zm-643.8,0H2537V314.1h-67.3V276.7H2643v37.4h-67.3V525.3Zm-137.7,0h-38.7V276.7h38.7Zm-217.5,0h-38.7V314.1h-67.3V276.7h173.3v37.4h-67.3Zm-130.5-.4H1941.7V276.7h148.4v37.4H1980.5v68.2h98.9v37h-98.9v68.2h109.6Zm710.8-57.7c17.3,17.3,38.3,26,62.7,26,25.1,0,45.6-8.5,62.7-26,17-17,25.6-39.3,25.6-66.2s-8.6-49.3-25.5-66.2c-17.3-17.3-38.4-26-62.7-26-25.1,0-45.6,8.5-62.6,26-17,17-25.6,39.3-25.6,66.2s8.5,49.3,25.4,66.2Z" style="fill:#fff"/><path d="M1772.23,769h-140v-74.9h358.4V769h-140v426.3h-78.4Z" style="fill:#fff"/><path d="M2039.28,1182a172.58,172.58,0,0,1-65.1-67.55q-23.46-43-23.45-97,0-51.09,22.75-94.85T2036.83,853q40.59-25.89,92.4-25.9,53.89,0,93.45,23.8a155.94,155.94,0,0,1,60.2,65.1q20.64,41.31,20.65,93.1a178.84,178.84,0,0,1-2.1,24.5h-273.7q4.2,49.71,35.35,76.65t72.45,27q32.89,0,57-15.05a113,113,0,0,0,38.85-40.95l65.1,30.8q-25.2,44.1-65.8,69.3t-97.3,25.2Q2080.93,1206.46,2039.28,1182Zm185.85-207.2q-1.41-18.9-11.9-37.45t-31.85-31.15q-21.36-12.6-52.15-12.6-37.11,0-62.65,22.05t-35.35,59.15Z" style="fill:#fff"/><path d="M2346.22,694.06h77v501.2h-77Z" style="fill:#fff"/><path d="M2551.68,1182a172.58,172.58,0,0,1-65.1-67.55q-23.46-43-23.45-97,0-51.09,22.75-94.85T2549.23,853q40.59-25.89,92.4-25.9,53.89,0,93.45,23.8a155.94,155.94,0,0,1,60.2,65.1q20.64,41.31,20.65,93.1a178.84,178.84,0,0,1-2.1,24.5h-273.7q4.2,49.71,35.35,76.65t72.45,27q32.9,0,57.05-15.05a113,113,0,0,0,38.85-40.95l65.1,30.8q-25.2,44.1-65.8,69.3t-97.3,25.2Q2593.33,1206.46,2551.68,1182Zm185.85-207.2q-1.41-18.9-11.9-37.45t-31.85-31.15q-21.36-12.6-52.15-12.6-37.11,0-62.65,22.05t-35.35,59.15Z" style="fill:#fff"/><path d="M2914.26,1327.56q-43.05-30.11-57.75-71.4l72.1-30.1a97.9,97.9,0,0,0,36,45.15q24.84,17.14,58.45,17.15,49,0,76.65-29t27.65-81.55v-32.9h-4.2q-17.51,25.2-46.55,39.55t-66.85,14.35a159,159,0,0,1-83.3-23.1q-38.51-23.1-61.25-65.45t-22.75-97q0-54.6,22.75-97t61.25-65.8a157.26,157.26,0,0,1,83.3-23.45q37.09,0,66.5,14.7t46.9,39.9h4.2v-43.4h73.5v337.4q0,58.1-22.4,99t-62.65,62q-40.26,21-92.75,21Q2957.3,1357.66,2914.26,1327.56Zm161.35-212.45q23.79-13.65,37.8-39.9t14-62q0-54.6-29.75-85t-73.85-30.45a103.62,103.62,0,0,0-52.5,13.65q-23.8,13.65-37.8,39.55t-14,62.3q0,36.4,14,62.3t37.8,39.55a103.62,103.62,0,0,0,52.5,13.65A102.36,102.36,0,0,0,3075.61,1115.11Z" style="fill:#fff"/><path d="M3263.91,838.26h73.5v52.5h3.5q11.9-27.3,41.3-45.15t62.3-17.85q25.89,0,43.4,7v79.8q-30.81-11.19-55.3-11.2-26.61,0-47.25,14a97.75,97.75,0,0,0-32.55,37.45q-11.91,23.46-11.9,51.45v189h-77Z" style="fill:#fff"/><path d="M3550.21,1191.41q-30.11-15-46.9-42.7t-16.8-62.65q0-55.29,41.65-87.5t105.35-32.2q31.5,0,56.7,5.95t39.9,13v-18.2q0-32.89-24.5-53.55t-63-20.65a114.91,114.91,0,0,0-51.45,11.9,101,101,0,0,0-38.85,32.9l-53.9-41.3q23.79-32.9,61.6-51.1t84-18.2q77.7,0,119.7,38.15t42,107.45v222.6h-75.6v-42.7h-3.5q-15.41,23.1-43.4,38.5t-64.4,15.4Q3580.31,1206.46,3550.21,1191.41Zm132.3-62a95.08,95.08,0,0,0,35-35.7,96.9,96.9,0,0,0,12.6-48.3,157.41,157.41,0,0,0-37.45-14.7,174.67,174.67,0,0,0-44.45-5.6q-43.41,0-63.7,17.15t-20.3,44.45q0,24.51,18.9,40.25t49,15.75Q3660.1,1142.76,3682.51,1129.46Z" style="fill:#fff"/><path d="M3862.41,838.26h73.5v46.9h3.5q16.08-25.89,45.5-42a129.18,129.18,0,0,1,63-16.1q38.48,0,67.2,17.85t41.3,47.25a138.79,138.79,0,0,1,48.65-47.25q30.45-17.85,71.75-17.85,61.59,0,93.45,37.45t31.85,101.85v228.9h-77V979.66q0-81.2-69.3-81.2-37.12,0-60.9,30.1t-23.8,74.2v192.5h-77V979.66q0-81.2-71.4-81.2-36.4,0-59.85,30.1t-23.45,74.2v192.5h-77Z" style="fill:#fff"/><circle cx="797.35" cy="802" r="520.83" style="fill:url(#Sfumatura_senza_nome_6)"/><path d="M493.28,797.48,844,653c34.62-15.06,152-63.23,152-63.23s54.19-21.07,49.68,30.11c-1.51,21.07-13.55,94.83-25.59,174.61L982.5,1030.81s-3,34.62-28.6,40.64-67.73-21.08-75.26-27.1c-6-4.51-112.9-72.25-152-105.37-10.53-9-22.58-27.09,1.51-48.17C782.3,841.14,847,779.42,886.17,740.28c18.06-18.06,36.12-60.21-39.14-9l-212.25,143s-24.08,15.06-69.24,1.51-97.85-31.61-97.85-31.61-36.12-22.58,25.59-46.67Z" style="fill:#fff"/></svg>