<svg xmlns="http://www.w3.org/2000/svg" xmlns:xlink="http://www.w3.org/1999/xlink" viewBox="0 0 5435.8 1604"><defs><symbol id="a" viewBox="0 0 64 64"><path d="M48,9.07l16-2.4L48,0,0,16,48,9.07V64l16-6.67V6.67ZM16,53.33,22.13,52V42.4L32,49.33v-8L21.87,36,32,30.67v-8L21.87,29.6V20L16,18.67,5.33,28v4l6.14,4L5.33,40v4ZM8.53,42.4,16,38.67V48ZM16,24v9.33L8.53,29.6ZM32,49.33l8-2.66V25.33l-8-2.66Z" style="fill:#cb2e62"/></symbol></defs><path d="M5234.4,1604H201.4C90.4,1604,0,1513.6,0,1403.5V200.5C0,90,90.4,0,201.4,0h5033c110.9,0,201.4,90,201.4,200.5v1203C5435.8,1513.6,5345.3,1604,5234.4,1604Z" style="fill-rule:evenodd"/><path d="M5234.4,32.1c93.1,0,169.3,75.7,169.3,168.4v1203c0,92.7-75.7,168.4-169.3,168.4H201.4c-93.1,0-169.3-75.7-169.3-168.4V200.5c0-92.7,75.7-168.4,169.3-168.4Zm0-32.1H201.4C90.4,0,0,90.4,0,200.5v1203C0,1514,90.4,1604,201.4,1604h5033c110.9,0,201.4-90,201.4-200.5V200.5C5435.8,90.4,5345.3,0,5234.4,0Z" style="fill:#a6a6a6;fill-rule:evenodd"/><path d="M2863.6,530.6c-36.3,0-66.9-12.7-91.1-37.7a128.39,128.39,0,0,1-36.8-92c0-36.5,12.4-67.4,36.8-91.9,24.1-25,54.7-37.7,91-37.7,35.9,0,66.5,12.7,91.1,37.7,24.4,25.3,36.8,56.2,36.8,91.9-.4,36.6-12.8,67.5-36.8,91.9C2930.5,518,2899.9,530.6,2863.6,530.6Zm-1080.1,0c-35.5,0-66.3-12.5-91.5-37.2-25-24.6-37.7-55.7-37.7-92.4s12.7-67.8,37.7-92.4c24.7-24.7,55.5-37.2,91.5-37.2a127.51,127.51,0,0,1,51.1,10.6c16.1,6.9,29.2,16.3,38.9,27.8l2.4,2.9-27.1,26.6L1846,336c-15.3-18.2-35.8-27.1-62.9-27.1-24.2,0-45.3,8.6-62.7,25.6S1694,374,1694,401.1s8.9,49.5,26.4,66.6,38.5,25.6,62.7,25.6c25.8,0,47.5-8.6,64.4-25.6,10-10,16.2-24,18.4-41.7H1779V388.6h124.2l.5,3.4a137.21,137.21,0,0,1,1.8,18.8c0,34.5-10.4,62.4-31,83C1851.1,518.2,1820.5,530.6,1783.5,530.6Zm1436.1-5.3h-38.3L3064,337.6l1,33.8V525.2h-38.3V276.7h43.7l1.2,1.9,110.3,176.8-1-33.7v-145h38.7V525.3Zm-643.8,0H2537V314.1h-67.3V276.7H2643v37.4h-67.3V525.3Zm-137.7,0h-38.7V276.7h38.7Zm-217.5,0h-38.7V314.1h-67.3V276.7h173.3v37.4h-67.3Zm-130.5-.4H1941.7V276.7h148.4v37.4H1980.5v68.2h98.9v37h-98.9v68.2h109.6Zm710.8-57.7c17.3,17.3,38.3,26,62.7,26,25.1,0,45.6-8.5,62.7-26,17-17,25.6-39.3,25.6-66.2s-8.6-49.3-25.5-66.2c-17.3-17.3-38.4-26-62.7-26-25.1,0-45.6,8.5-62.6,26-17,17-25.6,39.3-25.6,66.2s8.5,49.3,25.4,66.2Z" style="fill:#fff"/><path d="M1812.13,694.06h89.6l188.3,501.2h-86.8l-44.8-128.1h-202.3l-45.5,128.1h-86.8Zm119.7,300.3-53.2-149.1-19.6-58.1h-4.2l-19.6,58.1L1782,994.36Z" style="fill:#fff"/><path d="M2118.72,838.26h73.5v46.9h3.5q15.39-24.49,45.5-41.3t67.9-16.8q48.3,0,87.5,24.5t62,67.55q22.74,43,22.75,97.65t-22.75,97.65q-22.76,43-62,67.55t-87.5,24.5q-37.8,0-67.9-16.8t-45.5-40.6h-3.5l3.5,49.7v147.7h-77Zm231.7,282.8q24.49-14.7,39.2-42t14.7-62.3q0-35-14.7-62t-39.2-41.65a100.35,100.35,0,0,0-52.5-14.7,98.5,98.5,0,0,0-52.15,14.7q-24.15,14.7-38.85,41.65t-14.7,62q0,35,14.7,62.3t38.85,42a98.5,98.5,0,0,0,52.15,14.7A100.35,100.35,0,0,0,2350.42,1121.06Z" style="fill:#fff"/><path d="M2514.22,838.26h73.5v46.9h3.5q15.39-24.49,45.5-41.3t67.9-16.8q48.3,0,87.5,24.5t62,67.55q22.74,43,22.75,97.65t-22.75,97.65q-22.76,43-62,67.55t-87.5,24.5q-37.8,0-67.9-16.8t-45.5-40.6h-3.5l3.5,49.7v147.7h-77Zm231.7,282.8q24.49-14.7,39.2-42t14.7-62.3q0-35-14.7-62t-39.2-41.65a100.35,100.35,0,0,0-52.5-14.7,98.5,98.5,0,0,0-52.15,14.7q-24.15,14.7-38.85,41.65t-14.7,62q0,35,14.7,62.3t38.85,42a98.5,98.5,0,0,0,52.15,14.7A100.35,100.35,0,0,0,2745.92,1121.06Z" style="fill:#fff"/><path d="M3158.22,1172.16a248.2,248.2,0,0,1-94.5-94.5q-34.3-60.2-34.3-133t34.3-133a248.34,248.34,0,0,1,94.5-94.5q60.2-34.29,133-34.3,56.7,0,103.25,21t82.25,60.9l-56,53.9q-25.91-30.79-57.4-45.85t-72.1-15q-50.4,0-92,23.1T3133,846.31q-24.51,42.36-24.5,98.35T3133,1043q24.49,42.36,66.15,65.45t92,23.1q84,0,142.8-70l56.7,54.6a255.21,255.21,0,0,1-87.5,66.5q-51.1,23.79-112,23.8Q3218.41,1206.46,3158.22,1172.16Z" style="fill:#fff"/><path d="M3593.27,1182a172.58,172.58,0,0,1-65.1-67.55q-23.46-43-23.45-97,0-51.09,22.75-94.85T3590.82,853q40.59-25.89,92.4-25.9,53.9,0,93.45,23.8a155.94,155.94,0,0,1,60.2,65.1q20.64,41.31,20.65,93.1a178.84,178.84,0,0,1-2.1,24.5h-273.7q4.2,49.71,35.35,76.65t72.45,27q32.89,0,57.05-15.05a113,113,0,0,0,38.85-40.95l65.1,30.8q-25.2,44.1-65.8,69.3t-97.3,25.2Q3634.92,1206.46,3593.27,1182Zm185.85-207.2q-1.41-18.9-11.9-37.45t-31.85-31.15q-21.36-12.6-52.15-12.6-37.11,0-62.65,22.05t-35.35,59.15Z" style="fill:#fff"/><path d="M3900.21,838.26h73.5v46.9h3.5q15.39-25.2,45.86-41.65a134.26,134.26,0,0,1,64.75-16.45q65.08,0,99,38.15t33.95,103.95v226.1h-77V979.66q0-42-20.65-61.6t-57.05-19.6q-25.92,0-46.2,14.35a95.3,95.3,0,0,0-31.5,38.15,118.33,118.33,0,0,0-11.21,51.1v193.2h-77Z" style="fill:#fff"/><path d="M4364.31,1193.16q-21-7.7-34.3-20.3-30.11-30.09-30.1-81.9V906.16h-62.3v-67.9h62.3V737.46h77v100.8h86.8v67.9h-86.8v168q0,28.71,11.2,40.6,10.5,14,36.4,14a64.15,64.15,0,0,0,21-3.15,87.72,87.72,0,0,0,19.6-10.15v74.9q-23.1,10.5-56,10.5A129.18,129.18,0,0,1,4364.31,1193.16Z" style="fill:#fff"/><path d="M4564.87,1182a172.44,172.44,0,0,1-65.1-67.55q-23.48-43-23.45-97,0-51.09,22.75-94.85T4562.42,853q40.58-25.89,92.4-25.9,53.9,0,93.45,23.8a155.92,155.92,0,0,1,60.19,65.1q20.64,41.31,20.66,93.1a178.84,178.84,0,0,1-2.1,24.5h-273.7q4.2,49.71,35.35,76.65t72.45,27q32.88,0,57.05-15.05a113,113,0,0,0,38.85-40.95l65.1,30.8q-25.2,44.1-65.8,69.3t-97.3,25.2Q4606.52,1206.46,4564.87,1182Zm185.84-207.2q-1.41-18.9-11.89-37.45T4707,906.16q-21.36-12.6-52.14-12.6-37.12,0-62.65,22.05t-35.35,59.15Z" style="fill:#fff"/><path d="M4871.81,838.26h73.5v52.5h3.5q11.89-27.3,41.3-45.15t62.3-17.85q25.89,0,43.4,7v79.8q-30.81-11.19-55.3-11.2-26.61,0-47.25,14a97.75,97.75,0,0,0-32.55,37.45q-11.91,23.46-11.9,51.45v189h-77Z" style="fill:#fff"/><use width="64" height="64" transform="matrix(15.68, 0, 0, -15.68, 292, 1299.57)" xlink:href="#a"/></svg>