<svg id="Livello_1" data-name="Livello 1" xmlns="http://www.w3.org/2000/svg" viewBox="0 0 1856 1856"><circle cx="928" cy="928" r="928" style="fill:#4286f4"/><path d="M965.51,1533.78c38.55-7,41.85-35.24,46.25-62.4,4-25,17.62-38.55,41.12-27.53,4,2.93,25.69,18,105,70.84,89.2,59.47,151.6,66.81,159.31-1.47,24.22-211.43-217.31-174.36-256.22-199.68-6.61-4.41-11.38-8.81-14.31-12.85-15.05-19.46,5.5-34.87,5.5-34.87,22.39,8.81,148.67-76,156-195.29C1223.56,819.09,1098,709,1098,709,825.66,286.1,712.6,294.91,712.6,294.91c-9.18-.73-16.15,2.94-20.92,9.55-45.89,65.34,90.67,438.65,90.67,438.65a21.47,21.47,0,0,0-15.79-6.61C707.83,753.75,797,893.61,797,893.61c-30.47,15-22.39,76.71,11.74,97.64s18.36,19.09,33.77,71.94c15.79,52.86-65,67.18-153.43,110.86-22.39,11-44.78,23.49-61.3,42.58-19.09,22.39-21.66,49.19-25.33,77.45-4.4,34.51,2.57,58,12.11,73.78a241.52,241.52,0,0,0,4.41,24.6c5.87,27.16,30.83,25.32,30.83,25.32-2.93-6.24-4-14.31-4.77-21.65a1.15,1.15,0,0,0,.73.36s36.34,25.33,61.67,27.53,56.53-5.87,132.52-31.2l7.7-2.2c2.57,3.3,5.14,6.24,5.51,6.61a117.64,117.64,0,0,0,9.54,9.54c7,6.61,14.69,12.85,22,19.46,1.83,1.83,4,3.67,6.24,5.5q2.21,8.26,0,14.32c-8.08,19.45-24.6,37.81-46.25,40.38-21.66,2.2-35.61-11.75-82.59,0s-78.19,26.79-70.11,51.39c0,0,21.65-26.8,34.87-13.59,0,0-33.41,15-23.13,36.34-.73-1.46,10.65-10.64,11.75-11.74,8.44-7,18.35-12.12,29.73-12.48,16.15-.37,39.64-15,53.59-1.47-1.1.73-1.83,1.1-2.93,1.83-41.12,25.7-66.44,49.56-51,70.12,0,0,12.48-32.31,29.37-23.5,0,0-27.53,24.23-11,41.85-1.1-1.1,6.24-12.11,6.6-13.22,5.88-8.81,12.48-16.51,22-20.92,8.81-4,17.62-9.54,26.43-14.31,8.07-4.78,18.72-9.18,27.9-4.41,16.88,8.81-4.41,20.92-4.41,20.92s9.91,4,26.8-4c0,0,4.4,14.31-12.12,20.92,0,0,17.62,9.18,31.57-20.92,0,0,1.84-11.38-1.83-30.1C884.39,1541.12,927.34,1540.75,965.51,1533.78Z" transform="translate(-32 -32)" style="fill:#fff"/></svg>